<svg width="20" height="21" viewBox="0 0 20 21" fill="none" xmlns="http://www.w3.org/2000/svg">
<path d="M19.0767 16.0888L19.0764 16.0885C19.0274 16.0377 18.9739 15.9838 18.9167 15.9261C18.5005 15.5059 17.8903 14.8902 17.3867 13.9086C16.8108 12.7862 16.3893 11.2297 16.3893 8.9375C16.3893 6.05476 13.8882 3.6128 10.853 3.00591L10.25 2.88536V2.27047V1.375C10.25 1.03765 10.1978 0.863079 10.155 0.792705C10.1471 0.779705 10.1418 0.774284 10.1404 0.772905C10.1393 0.77186 10.1386 0.771267 10.1364 0.770091L10.1364 0.770087C10.1339 0.768774 10.0987 0.75 10 0.75C9.90135 0.75 9.86609 0.768771 9.86362 0.770086L9.86361 0.770091C9.8614 0.771267 9.86071 0.77186 9.85964 0.772905C9.85822 0.774283 9.85294 0.779704 9.84502 0.792704C9.80219 0.863078 9.75 1.03765 9.75 1.375V2.27047V2.88536L9.14705 3.00591C6.11176 3.6128 3.61074 6.05476 3.61074 8.9375C3.61074 11.2297 3.18919 12.7862 2.6133 13.9086C2.10966 14.8902 1.49954 15.5059 1.08326 15.9261C1.02617 15.9837 0.972723 16.0377 0.923698 16.0884L19.0767 16.0888ZM19.0767 16.0888C19.2061 16.2224 19.2509 16.3642 19.25 16.4948L19.25 16.4952M19.0767 16.0888L19.25 16.4952M19.25 16.4952C19.248 16.8051 18.9908 17.125 18.5669 17.125H1.43306C1.00961 17.125 0.752214 16.8055 0.750013 16.4948L19.25 16.4952ZM8.5318 19.681C8.53184 19.681 8.53236 19.6816 8.53326 19.6828C8.53222 19.6816 8.53177 19.681 8.5318 19.681ZM11.4667 19.6829C11.4676 19.6816 11.4682 19.681 11.4682 19.681C11.4682 19.681 11.4678 19.6817 11.4667 19.6829ZM0.750013 16.4948C0.749132 16.3646 0.793701 16.2229 0.923585 16.0885L0.750013 16.4948Z" stroke="#3C377A" stroke-width="1.5"/>
</svg>
