<svg width="38" height="38" viewBox="0 0 38 38" fill="none" xmlns="http://www.w3.org/2000/svg">
<circle cx="19" cy="19" r="19" fill="#E5E7EA"/>
<path d="M13 12.5V26.5C13 26.7761 13.2239 27 13.5 27H21.25H24.5C24.7761 27 25 26.7761 25 26.5V23.25V15.1228C25 15.0016 24.956 14.8845 24.8761 14.7933L22.578 12.1705C22.483 12.0621 22.346 12 22.2019 12H13.5C13.2239 12 13 12.2239 13 12.5Z" stroke="#454267" stroke-width="1.3"/>
<path d="M25 15.65C25.359 15.65 25.65 15.359 25.65 15C25.65 14.641 25.359 14.35 25 14.35V15.65ZM21.35 12V14.9H22.65V12H21.35ZM22.1 15.65H25V14.35H22.1V15.65ZM21.35 14.9C21.35 15.3142 21.6858 15.65 22.1 15.65V14.35C22.4038 14.35 22.65 14.5962 22.65 14.9H21.35Z" fill="#454267"/>
<path d="M15.1396 15.2095L19.7396 15.2095" stroke="#454267" stroke-width="1.3" stroke-linecap="round"/>
<path d="M15.1396 19.4883H22.0396" stroke="#454267" stroke-width="1.3" stroke-linecap="round"/>
<path d="M15.2979 23.7676L19.8979 23.7676" stroke="#454267" stroke-width="1.3" stroke-linecap="round"/>
</svg>
