<svg id="Icons" height="512" viewBox="0 0 74 74" width="512" xmlns="http://www.w3.org/2000/svg"><path d="m44 72h-2.97a1 1 0 0 1 0-2h2.97a1 1 0 0 1 0 2z"/><path d="m71 72h-20a1 1 0 0 1 0-2h19v-38.34h-64.59v38.34h18.72a1 1 0 0 1 0 2h-19.72a1 1 0 0 1 -1-1v-40.34a1 1 0 0 1 1-1h66.59a1 1 0 0 1 1 1v40.34a1 1 0 0 1 -1 1z"/><path d="m34.03 72h-2.9a1 1 0 1 1 0-2h2.9a1 1 0 0 1 0 2z"/><path d="m4.4 23.5a1 1 0 0 1 -.985-.828l-1.4-8.039a1 1 0 0 1 .813-1.156l65.6-11.461a1 1 0 0 1 1.157.813l1.4 8.039a1 1 0 0 1 -.813 1.156l-65.596 11.46a1 1 0 0 1 -.176.016zm-.247-8.226 1.06 6.069 63.63-11.117-1.06-6.069z"/><path d="m71 31.66h-66.59a1 1 0 0 1 -1-1v-8.16a1 1 0 0 1 1-1h66.59a1 1 0 0 1 1 1v8.16a1 1 0 0 1 -1 1zm-65.59-2h64.59v-6.16h-64.59z"/><path d="m55.4 31.66a1 1 0 0 1 -.782-1.622l6.48-8.161a1 1 0 1 1 1.566 1.244l-6.48 8.161a1 1 0 0 1 -.784.378z"/><path d="m41.443 31.66a1 1 0 0 1 -.782-1.622l6.48-8.161a1 1 0 0 1 1.566 1.244l-6.48 8.161a1 1 0 0 1 -.784.378z"/><path d="m27.486 31.66a1 1 0 0 1 -.782-1.622l6.48-8.161a1 1 0 1 1 1.566 1.244l-6.48 8.161a1 1 0 0 1 -.784.378z"/><path d="m13.529 31.66a1 1 0 0 1 -.782-1.622l6.48-8.161a1 1 0 0 1 1.566 1.244l-6.48 8.161a1 1 0 0 1 -.784.378z"/><path d="m62.236 13.4a.994.994 0 0 1 -.69-.276l-7.345-7a1 1 0 1 1 1.38-1.447l7.345 7a1 1 0 0 1 -.69 1.723z"/><path d="m48.467 15.8a1 1 0 0 1 -.69-.276l-7.344-7a1 1 0 1 1 1.38-1.448l7.344 7a1 1 0 0 1 -.69 1.723z"/><path d="m34.679 18.2a1 1 0 0 1 -.69-.277l-7.335-7a1 1 0 0 1 1.381-1.443l7.335 7a1 1 0 0 1 -.691 1.724z"/><path d="m20.9 20.614a1 1 0 0 1 -.69-.277l-7.335-7a1 1 0 0 1 1.381-1.446l7.335 7a1 1 0 0 1 -.691 1.723z"/><path d="m34.058 60.115a3.821 3.821 0 0 1 -3.807-3.815v-10.943a3.8 3.8 0 0 1 5.736-3.279l9.3 5.472a3.806 3.806 0 0 1 0 6.56l-9.3 5.473a3.79 3.79 0 0 1 -1.929.532zm0-16.567a1.816 1.816 0 0 0 -1.806 1.809v10.943a1.806 1.806 0 0 0 2.722 1.556l9.3-5.473a1.806 1.806 0 0 0 0-3.112l-9.3-5.473a1.806 1.806 0 0 0 -.917-.25z"/></svg>